<mxfile host="app.diagrams.net" modified="2023-09-28T13:25:05.159Z" agent="Mozilla/5.0 (Windows NT 10.0; Win64; x64) AppleWebKit/537.36 (KHTML, like Gecko) Chrome/117.0.0.0 Safari/537.36 Edg/117.0.2045.41" version="21.7.4" etag="EDPIyCfIe8kIHsT3ScUJ" type="github">
  <diagram name="Page-1" id="qplk-iepJpPMJoz5TBAy">
    <mxGraphModel>
      <root>
        <mxCell id="0" />
        <mxCell id="1" parent="0" />
      </root>
    </mxGraphModel>
  </diagram>
</mxfile>
